# xmcd
#
# Track frame offsets: 
#        183
#        17445
#        29720
#        45873
#        57390
#        71408
#        82473
#        103928
#        115663
#        127653
#        139048
#        155008
#        165720
#        180375
#        194550
#        206808
#
# Disc length: 2952 seconds
#
# Revision: 0
# Processed by: cddbd v1.4PL0 Copyright (c) Steve Scherf et al.
# Submitted via: ExactAudioCopy v0.95a4
#
DISCID=df0b8610
DTITLE=Bobby Goldsboro - Honey
DYEAR=1986
DGENRE=Country
TTITLE0=Honey
TTITLE1=The straight life
TTITLE2=With pen in hand
TTITLE3=Muddy Mississippi line
TTITLE4=Blue autumn
TTITLE5=Little things
TTITLE6=Summer (the first time)
TTITLE7=Wachtin' Scotty grow
TTITLE8=Broomstick cowboy
TTITLE9=It's too late
TTITLE10=Autumn of my life
TTITLE11=Hello summertime
TTITLE12=I'm a drifter
TTITLE13=Love divine
TTITLE14=Lovin'in slow motion
TTITLE15=Payin' for the good times
EXTD=
EXTT0=
EXTT1=
EXTT2=
EXTT3=
EXTT4=
EXTT5=
EXTT6=
EXTT7=
EXTT8=
EXTT9=
EXTT10=
EXTT11=
EXTT12=
EXTT13=
EXTT14=
EXTT15=
PLAYORDER=
